<svg width="11" height="6" fill="none" xmlns="http://www.w3.org/2000/svg"><g clip-path="url(#clip0)"><path d="M0 .998C0 .801.06.608.176.444.292.28.457.151.651.074a1.127 1.127 0 011.161.207l3.693 3.35L9.197.28a1.118 1.118 0 011.442.082c.185.18.291.42.297.67a.962.962 0 01-.266.682L6.241 5.718C6.042 5.898 5.777 6 5.5 6c-.277 0-.543-.1-.742-.28L.34 1.714a1.003 1.003 0 01-.248-.326A.945.945 0 010 1z" fill="#FFA180"/></g><defs><clipPath id="clip0"><path fill="#fff" transform="rotate(90 5.5 5.5)" d="M0 0h6v11H0z"/></clipPath></defs></svg>