<svg width="30" height="30" viewBox="0 0 24 24" fill="none" xmlns="http://www.w3.org/2000/svg">
    <path d="M14.1693 12.0329L18.7388 7.46332C19.0322 7.17268 19.1981 6.77739 19.2 6.36443C19.202 5.95146 19.0398 5.55464 18.7491 5.26125C18.4585 4.96787 18.0632 4.80196 17.6502 4.80002C17.2373 4.79808 16.8405 4.96027 16.5471 5.25091L11.9982 9.82046L7.40798 5.25091C7.11401 4.97699 6.72519 4.82786 6.32344 4.83495C5.92169 4.84204 5.53838 5.00479 5.25425 5.28891C4.97013 5.57304 4.80738 5.95635 4.80029 6.3581C4.7932 6.75985 4.94233 7.14867 5.21625 7.44264L9.7858 12.0329L5.21625 16.5817C4.94233 16.8757 4.7932 17.2645 4.80029 17.6663C4.80738 18.068 4.97013 18.4513 5.25425 18.7355C5.53838 19.0196 5.92169 19.1823 6.32344 19.1894C6.72519 19.1965 7.11401 19.0474 7.40798 18.7735L11.9982 14.2039L16.5677 18.7735C16.8617 19.0474 17.2505 19.1965 17.6523 19.1894C18.054 19.1823 18.4374 19.0196 18.7215 18.7355C19.0056 18.4513 19.1684 18.068 19.1754 17.6663C19.1825 17.2645 19.0334 16.8757 18.7595 16.5817L14.1693 12.0329Z" class=""></path>
</svg>