<svg width="74" height="24" viewBox="0 0 74 24" fill="none" xmlns="http://www.w3.org/2000/svg">
<path d="M7.8921 2.77347V12.0275H6.26013V4.22767H1.63197V12.0275H0V2.77347H7.8921Z" fill="black"/>
<path d="M17.1023 10.5865V12.0275H10.4087V2.77347H16.9238V4.21445H12.0661V6.62049H16.3756V8.03502H12.0661V10.5865H17.1023Z" fill="black"/>
<path d="M22.6219 2.77347C23.3954 2.77347 24.0669 2.90567 24.6364 3.17007C25.2144 3.43447 25.6564 3.81344 25.9624 4.30699C26.2684 4.80054 26.4214 5.38662 26.4214 6.06525C26.4214 6.73506 26.2684 7.32115 25.9624 7.8235C25.6564 8.31705 25.2144 8.69602 24.6364 8.96042C24.0669 9.22482 23.3954 9.35702 22.6219 9.35702H20.6075V12.0275H18.95V2.77347H22.6219ZM22.5454 7.90282C23.2679 7.90282 23.8162 7.74418 24.1902 7.42691C24.5642 7.10963 24.7511 6.65574 24.7511 6.06525C24.7511 5.47476 24.5642 5.02087 24.1902 4.70359C23.8162 4.38631 23.2679 4.22767 22.5454 4.22767H20.6075V7.90282H22.5454Z" fill="black"/>
<path d="M32.2193 12.1597C31.3183 12.1597 30.5023 11.957 29.7714 11.5515C29.0489 11.1373 28.4794 10.5689 28.0629 9.84616C27.6549 9.12347 27.4509 8.30824 27.4509 7.40047C27.4509 6.49269 27.6592 5.67746 28.0756 4.95477C28.4921 4.23208 29.0616 3.66802 29.7841 3.26261C30.5151 2.84839 31.3311 2.64127 32.2321 2.64127C32.9631 2.64127 33.6303 2.77347 34.2338 3.03787C34.8373 3.30227 35.3473 3.68565 35.7637 4.18801L34.6928 5.23239C34.0468 4.5097 33.252 4.14835 32.3086 4.14835C31.6966 4.14835 31.1483 4.28936 30.6638 4.57139C30.1794 4.8446 29.8011 5.22798 29.5291 5.72153C29.2571 6.21507 29.1211 6.77472 29.1211 7.40047C29.1211 8.02621 29.2571 8.58586 29.5291 9.0794C29.8011 9.57295 30.1794 9.96073 30.6638 10.2428C31.1483 10.516 31.6966 10.6526 32.3086 10.6526C33.252 10.6526 34.0468 10.2868 34.6928 9.55532L35.7637 10.6129C35.3473 11.1153 34.833 11.4987 34.221 11.7631C33.6175 12.0275 32.9503 12.1597 32.2193 12.1597Z" fill="black"/>
<path d="M61.6527 2.77347V12.0275H59.9953V8.06146H55.3799V12.0275H53.7224V2.77347H55.3799V6.59405H59.9953V2.77347H61.6527Z" fill="black"/>
<path d="M70.0722 9.88582H65.6097L64.73 12.0275H63.0215L67.0377 2.77347H68.6697L72.6986 12.0275H70.9646L70.0722 9.88582ZM69.5239 8.53738L67.841 4.49207L66.1707 8.53738H69.5239Z" fill="black"/>
<path d="M6.14533 21.8236V24H5.19747V22.7479H0.955763V24H0L0.00790044 21.8236H0.244866C0.592417 21.8068 0.83465 21.5351 0.971564 21.0085C1.11374 20.4763 1.20063 19.7172 1.23223 18.7313L1.29542 16.8658H5.34755V21.8236H6.14533ZM2.1327 18.8321C2.10637 19.594 2.04844 20.2298 1.95892 20.7396C1.8694 21.2438 1.72722 21.6051 1.53238 21.8236H4.33649V17.7901H2.17219L2.1327 18.8321Z" fill="black"/>
<path d="M11.2591 21.832V22.7479H7.1122V16.8658H11.1485V17.7817H8.13906V19.3111H10.8089V20.2102H8.13906V21.832H11.2591Z" fill="black"/>
<path d="M16.4165 17.7901H14.5839V22.7479H13.565V17.7901H11.7403V16.8658H16.4165V17.7901Z" fill="black"/>
<path d="M19.7684 22.832C19.2102 22.832 18.7047 22.7031 18.2518 22.4454C17.8042 22.1821 17.4514 21.8208 17.1933 21.3614C16.9406 20.9021 16.8142 20.3839 16.8142 19.8069C16.8142 19.2299 16.9432 18.7117 17.2012 18.2523C17.4593 17.7929 17.8121 17.4344 18.2597 17.1767C18.7126 16.9134 19.2181 16.7818 19.7763 16.7818C20.2292 16.7818 20.6425 16.8658 21.0164 17.0339C21.3903 17.2019 21.7062 17.4456 21.9643 17.7649L21.3008 18.4288C20.9006 17.9694 20.4082 17.7397 19.8237 17.7397C19.4445 17.7397 19.1049 17.8294 18.8047 18.0086C18.5046 18.1823 18.2702 18.426 18.1017 18.7397C17.9332 19.0534 17.849 19.4091 17.849 19.8069C17.849 20.2046 17.9332 20.5604 18.1017 20.8741C18.2702 21.1878 18.5046 21.4343 18.8047 21.6135C19.1049 21.7872 19.4445 21.874 19.8237 21.874C20.4082 21.874 20.9006 21.6415 21.3008 21.1766L21.9643 21.8488C21.7062 22.1681 21.3877 22.4118 21.0085 22.5799C20.6346 22.7479 20.2212 22.832 19.7684 22.832Z" fill="black"/>
<path d="M27.4456 17.7901H25.6131V22.7479H24.5941V17.7901H22.7695V16.8658H27.4456V17.7901Z" fill="black"/>
<path d="M31.9726 19.6892C32.3254 19.7901 32.594 19.9637 32.7783 20.2102C32.9626 20.4511 33.0547 20.7536 33.0547 21.1178C33.0547 21.6331 32.8757 22.0337 32.5176 22.3194C32.1595 22.6051 31.6408 22.7479 30.9615 22.7479H28.3391V16.8658H30.8114C31.4328 16.8658 31.9173 16.9975 32.2648 17.2608C32.6124 17.524 32.7862 17.8966 32.7862 18.3784C32.7862 18.6865 32.7151 18.9526 32.5729 19.1766C32.436 19.4007 32.2359 19.5716 31.9726 19.6892ZM29.3502 19.3783H30.7246C31.0563 19.3783 31.3091 19.3083 31.4828 19.1682C31.6566 19.0282 31.7435 18.8209 31.7435 18.5464C31.7435 18.2719 31.6566 18.0646 31.4828 17.9246C31.3091 17.7789 31.0563 17.7061 30.7246 17.7061H29.3502V19.3783ZM30.9299 21.9076C31.6566 21.9076 32.02 21.6163 32.02 21.0337C32.02 20.4623 31.6566 20.1766 30.9299 20.1766H29.3502V21.9076H30.9299Z" fill="black"/>
<path d="M36.7837 22.832C36.2203 22.832 35.7121 22.7031 35.2593 22.4454C34.8064 22.1821 34.4509 21.8208 34.1929 21.3614C33.9349 20.8965 33.8059 20.3783 33.8059 19.8069C33.8059 19.2355 33.9349 18.7201 34.1929 18.2607C34.4509 17.7957 34.8064 17.4344 35.2593 17.1767C35.7121 16.9134 36.2203 16.7818 36.7837 16.7818C37.3472 16.7818 37.8554 16.9134 38.3082 17.1767C38.7611 17.4344 39.1166 17.7929 39.3746 18.2523C39.6326 18.7117 39.7616 19.2299 39.7616 19.8069C39.7616 20.3839 39.6326 20.9021 39.3746 21.3614C39.1166 21.8208 38.7611 22.1821 38.3082 22.4454C37.8554 22.7031 37.3472 22.832 36.7837 22.832ZM36.7837 21.874C37.1524 21.874 37.4841 21.7872 37.779 21.6135C38.0739 21.4343 38.3056 21.1878 38.4741 20.8741C38.6426 20.5547 38.7269 20.199 38.7269 19.8069C38.7269 19.4147 38.6426 19.0618 38.4741 18.7481C38.3056 18.4288 38.0739 18.1823 37.779 18.0086C37.4841 17.8294 37.1524 17.7397 36.7837 17.7397C36.4151 17.7397 36.0834 17.8294 35.7885 18.0086C35.4936 18.1823 35.2619 18.4288 35.0934 18.7481C34.9249 19.0618 34.8406 19.4147 34.8406 19.8069C34.8406 20.199 34.9249 20.5547 35.0934 20.8741C35.2619 21.1878 35.4936 21.4343 35.7885 21.6135C36.0834 21.7872 36.4151 21.874 36.7837 21.874Z" fill="black"/>
<path d="M51.3096 7.2721H49.3921C49.3921 5.9018 48.8672 4.58763 47.9327 3.61869C46.9982 2.64974 45.7308 2.10539 44.4092 2.10539C43.0877 2.10539 41.8202 2.64974 40.8857 3.61869C39.9513 4.58763 39.4263 5.9018 39.4263 7.2721H37.5107C37.4956 6.32282 37.6628 5.37991 38.0027 4.49834C38.3426 3.61676 38.8483 2.81415 39.4904 2.13729C40.1325 1.46044 40.8981 0.922867 41.7426 0.555923C42.5871 0.188979 43.4936 0 44.4092 0C45.3249 0 46.2313 0.188979 47.0758 0.555923C47.9203 0.922867 48.6859 1.46044 49.328 2.13729C49.9701 2.81415 50.4758 3.61676 50.8157 4.49834C51.1556 5.37991 51.3228 6.32282 51.3077 7.2721H51.3096Z" fill="#BD5A00"/>
<path d="M49.3921 7.27211H51.3077C51.3228 8.22139 51.1556 9.1643 50.8157 10.0459C50.4758 10.9275 49.9701 11.7301 49.328 12.4069C48.6859 13.0838 47.9203 13.6213 47.0758 13.9883C46.2313 14.3552 45.3248 14.5442 44.4092 14.5442C43.4936 14.5442 42.5871 14.3552 41.7426 13.9883C40.8981 13.6213 40.1325 13.0838 39.4904 12.4069C38.8483 11.7301 38.3426 10.9275 38.0027 10.0459C37.6628 9.1643 37.4956 8.22139 37.5107 7.27211H39.4225C39.4225 8.64241 39.9475 9.95658 40.882 10.9255C41.8165 11.8945 43.0839 12.4388 44.4054 12.4388C45.727 12.4388 46.9944 11.8945 47.9289 10.9255C48.8634 9.95658 49.3884 8.64241 49.3884 7.27211H49.3921Z" fill="black"/>
</svg>
