<svg width="22" height="22" fill="none" xmlns="http://www.w3.org/2000/svg"><path d="M18.178 2.695L13.03.66a1.822 1.822 0 00-1.418.055c-.466.21-.85.593-1.067 1.064L4.687 14.478c-.03.055-.057.112-.078.17a.755.755 0 00-.106.31.663.663 0 00.04.312l1.704 4.364c.138.322.392.569.714.696.322.128.69.126 1.037-.004l4.597-1.873a.78.78 0 00.439-.474c.03-.055.057-.112.079-.17l5.857-12.7c.214-.46.25-.971.102-1.422a1.622 1.622 0 00-.894-.992zm-1.53 2.464l-3.666 7.949a.567.567 0 01-.278.276.502.502 0 01-.187.045.446.446 0 01-.181-.03l-3.617-1.43a.42.42 0 01-.244-.256.507.507 0 01.024-.377l3.667-7.95a.564.564 0 01.277-.276.473.473 0 01.369-.014l3.617 1.43a.418.418 0 01.243.256c.02.059.03.122.025.187a.535.535 0 01-.049.19zM8.006 17.715l-1.016-2.63a.66.66 0 01.007-.493l.305-.661 4.483 1.772-.305.661a.75.75 0 01-.393.374l-2.745 1.118a.268.268 0 01-.203.005.24.24 0 01-.136-.14l.003-.006z" fill="#fff"/></svg>