<svg width="17" height="22" fill="none" xmlns="http://www.w3.org/2000/svg"><path d="M13.19 11.082v4.349l.97-.941H3.74c-.48 0-.96-.01-1.44 0h-.022l.97.941v-4.074c0-.353.007-.706.053-1.057a8.827 8.827 0 00-.034.25c.073-.504.209-.996.413-1.464-.032.075-.066.15-.097.226.198-.457.458-.887.768-1.28l-.153.19c.31-.39.67-.739 1.072-1.043l-.196.149a5.974 5.974 0 011.317-.749c-.078.03-.156.064-.233.094a6.044 6.044 0 011.506-.4 9.563 9.563 0 01-.257.033 6.395 6.395 0 011.615 0 9.645 9.645 0 00-.257-.033c.519.07 1.025.205 1.508.4-.078-.03-.155-.063-.233-.094.47.196.912.448 1.32.749l-.197-.149c.4.304.761.652 1.074 1.043l-.152-.19c.312.393.57.823.77 1.28-.03-.075-.065-.15-.096-.226.203.468.341.96.412 1.464a8.487 8.487 0 01-.034-.25c.034.257.05.518.053.782.003.492.447.965.97.941.524-.023.973-.414.97-.941-.005-1.991-.94-3.966-2.558-5.206-.827-.636-1.77-1.114-2.803-1.337a7.32 7.32 0 00-3.235.028c-1.95.466-3.686 1.822-4.537 3.592a6.733 6.733 0 00-.69 2.923v4.344c0 .51.445.942.97.942h10.421c.48 0 .96.007 1.44 0h.022c.524 0 .97-.43.97-.941v-4.35c0-.492-.446-.965-.97-.941-.526.026-.97.416-.97.946z" fill="#fff"/><path d="M15.467 20.113H2.753c-.584 0-1.171-.012-1.758 0H.971l.97.941.109-1.901.175-3.03.04-.694-.97.942h12.141c.56 0 1.123.009 1.683 0h.024l-.97-.942.11 1.902.174 3.029c.015.23.027.464.041.694.015.25.1.485.284.666.167.163.444.288.686.276.25-.012.512-.092.687-.276.17-.178.298-.416.283-.666l-.109-1.901-.174-3.03c-.015-.23-.027-.463-.042-.694-.029-.508-.42-.941-.97-.941H3.003c-.56 0-1.123-.007-1.683 0h-.024c-.546 0-.941.433-.97.941l-.11 1.902-.174 3.029c-.015.23-.027.464-.041.694a.929.929 0 00.284.666c.189.17.421.276.686.276h12.714c.587 0 1.171.01 1.758 0h.024c.507 0 .995-.433.97-.942a.975.975 0 00-.97-.941zM6.19 10.804c0-.132.009-.261.026-.39a8.778 8.778 0 00-.034.249c.036-.24.102-.473.199-.7l-.097.227c.1-.228.23-.44.385-.638l-.152.19c.15-.185.322-.35.514-.496l-.197.148c.194-.143.405-.263.63-.357-.077.03-.154.063-.232.094a3 3 0 01.718-.193 9.57 9.57 0 01-.257.033c.133-.017.269-.029.402-.029.507 0 .995-.433.97-.941a.973.973 0 00-.97-.942c-.747 0-1.525.217-2.139.634a4.247 4.247 0 00-.965.906c-.23.294-.39.619-.526.965a3.53 3.53 0 00-.218 1.238c-.003.492.448.965.97.941.53-.02.97-.412.972-.939zm2.999-8.402V.942c0-.492-.446-.965-.97-.941-.526.023-.97.414-.97.941v1.46c0 .491.446.965.97.941.524-.021.97-.412.97-.941zm4.193 1.578c.318-.451.635-.905.953-1.357.136-.193.16-.506.097-.725a.965.965 0 00-.446-.563c-.226-.115-.497-.174-.747-.094-.25.078-.432.221-.58.433l-.953 1.358c-.136.193-.16.506-.097.725a.966.966 0 00.446.563c.226.115.498.174.747.094a1.1 1.1 0 00.58-.433zm-8.65-.948l-.953-1.359a1.04 1.04 0 00-.58-.433c-.233-.06-.54-.033-.747.095-.206.129-.39.322-.446.562-.056.238-.048.518.097.725l.953 1.358c.143.205.328.365.58.433.233.061.54.033.747-.094.206-.13.39-.322.446-.563.056-.237.048-.517-.097-.724z" fill="#fff"/></svg>