<svg width="24" height="24" fill="none" xmlns="http://www.w3.org/2000/svg"><path d="M15.799 22.013a10.883 10.883 0 01-4.16-.89 16.235 16.235 0 01-5.157-3.465l-.117-.117a16.216 16.216 0 01-3.474-5.147A10.892 10.892 0 012 8.234a7.918 7.918 0 01.087-1.242 6.136 6.136 0 013.26-4.63 3.376 3.376 0 011.428-.361c.468-.01.934.073 1.37.244a7.251 7.251 0 012.388 1.498 6.546 6.546 0 011.957 2.984 3.415 3.415 0 01-.284 2.81 3.355 3.355 0 01-.979 1.075l-.107.069a2.613 2.613 0 002.221 2.222l.088-.138a3.376 3.376 0 012.476-1.438 3.46 3.46 0 011.41.166 6.537 6.537 0 012.935 1.957 7.36 7.36 0 011.507 2.418 3.377 3.377 0 01-.117 2.77 6.135 6.135 0 01-4.629 3.249c-.4.072-.806.115-1.213.126zm-7.594-6.185a13.7 13.7 0 004.325 2.936 8.55 8.55 0 003.21.705c.288-.001.576-.024.861-.069a3.63 3.63 0 002.79-1.927.86.86 0 00.097-.372.98.98 0 00-.069-.362v-.06a4.895 4.895 0 00-.978-1.575 4.09 4.09 0 00-1.762-1.194h-.137a.92.92 0 00-.773.069.88.88 0 00-.284.264l-.352.607a1.242 1.242 0 01-.978.607h-.421a5.098 5.098 0 01-5.089-5.04v-.47a1.282 1.282 0 01.607-.979l.577-.42a.9.9 0 00.372-.675.921.921 0 00-.049-.402 1.16 1.16 0 010-.137 4.1 4.1 0 00-1.301-1.752c-.463-.423-1-.755-1.586-.978a1.36 1.36 0 00-.372-.118.87.87 0 00-.381.098l-.294.167a3.63 3.63 0 00-1.664 2.622 5.599 5.599 0 00-.068.852 8.426 8.426 0 00.705 3.21 13.76 13.76 0 002.935 4.325l.079.069z" fill="#FFA180"/></svg>